<svg width="41" height="41" viewBox="0 0 41 41" fill="none" xmlns="http://www.w3.org/2000/svg">
<circle cx="20.5" cy="20.5" r="20.5" fill="#65520D"/>
<path fill-rule="evenodd" clip-rule="evenodd" d="M17.5 20.5C19.1569 20.5 20.5 21.8431 20.5 23.5L20.5 32.5C20.5 32.7761 20.7239 33 21 33C21.2761 33 21.5 32.7761 21.5 32.5L21.5 23.5C21.5 21.8431 22.8431 20.5 24.5 20.5H32.5C32.7761 20.5 33 20.2761 33 20C33 19.7239 32.7761 19.5 32.5 19.5H24.5C22.8431 19.5 21.5 18.1569 21.5 16.5V8.5C21.5 8.22386 21.2761 8 21 8C20.7239 8 20.5 8.22386 20.5 8.5V16.5C20.5 18.1569 19.1569 19.5 17.5 19.5H8.5C8.22386 19.5 8 19.7239 8 20C8 20.2761 8.22386 20.5 8.5 20.5H17.5Z" fill="white"/>
<path d="M21.5 23.5H21H21.5ZM21.5 32.5H21H21.5ZM20.5 23.5H20H20.5ZM20.5 32.5H20H20.5ZM21 32.5L21 23.5H20L20 32.5H21ZM21 23.5L21 32.5H22L22 23.5H21ZM32.5 20H24.5V21H32.5V20ZM24.5 20H32.5V19H24.5V20ZM21 8.5V16.5H22V8.5H21ZM21 16.5V8.5H20V16.5H21ZM8.5 20H17.5V19H8.5V20ZM17.5 20H8.5V21H17.5V20ZM7.5 20C7.5 20.5523 7.94772 21 8.5 21V20H8.5H7.5ZM8.5 19C7.94772 19 7.5 19.4477 7.5 20H8.5V19ZM20 16.5C20 17.8807 18.8807 19 17.5 19V20C19.433 20 21 18.433 21 16.5H20ZM21 7.5C20.4477 7.5 20 7.94771 20 8.5H21V8.5V7.5ZM22 8.5C22 7.94772 21.5523 7.5 21 7.5V8.5H22ZM24.5 19C23.1193 19 22 17.8807 22 16.5H21C21 18.433 22.567 20 24.5 20V19ZM33.5 20C33.5 19.4477 33.0523 19 32.5 19V20H33.5ZM32.5 21C33.0523 21 33.5 20.5523 33.5 20H32.5V21ZM22 23.5C22 22.1193 23.1193 21 24.5 21V20C22.567 20 21 21.567 21 23.5H22ZM21 33.5C21.5523 33.5 22 33.0523 22 32.5H21V33.5ZM21 23.5C21 21.567 19.433 20 17.5 20V21C18.8807 21 20 22.1193 20 23.5H21ZM20 32.5C20 33.0523 20.4477 33.5 21 33.5V32.5H20Z" fill="white"/>
</svg>
