<svg width="36" height="36" viewBox="0 0 36 36" fill="none" xmlns="http://www.w3.org/2000/svg">
<path d="M18 6.42003C18.2652 6.42003 18.5196 6.31468 18.7071 6.12714C18.8946 5.9396 19 5.68525 19 5.42003V1.91003C19 1.64482 18.8946 1.39046 18.7071 1.20293C18.5196 1.01539 18.2652 0.910034 18 0.910034C17.7348 0.910034 17.4804 1.01539 17.2929 1.20293C17.1054 1.39046 17 1.64482 17 1.91003V5.42003C17 5.68525 17.1054 5.9396 17.2929 6.12714C17.4804 6.31468 17.7348 6.42003 18 6.42003Z" fill="black"/>
<path d="M18 29.58C17.7348 29.58 17.4804 29.6853 17.2929 29.8728C17.1054 30.0604 17 30.3147 17 30.58V34.09C17 34.3552 17.1054 34.6095 17.2929 34.7971C17.4804 34.9846 17.7348 35.09 18 35.09C18.2652 35.09 18.5196 34.9846 18.7071 34.7971C18.8946 34.6095 19 34.3552 19 34.09V30.58C19 30.3147 18.8946 30.0604 18.7071 29.8728C18.5196 29.6853 18.2652 29.58 18 29.58Z" fill="black"/>
<path d="M8.40002 9.81002C8.59132 9.97385 8.8374 10.0595 9.08908 10.0497C9.34075 10.04 9.57949 9.93568 9.75759 9.75759C9.93568 9.57949 10.04 9.34075 10.0497 9.08908C10.0595 8.8374 9.97385 8.59132 9.81002 8.40002L7.33002 5.92002C7.13872 5.7562 6.89265 5.67059 6.64097 5.68031C6.38929 5.69003 6.15055 5.79436 5.97246 5.97246C5.79436 6.15055 5.69003 6.38929 5.68031 6.64097C5.67059 6.89265 5.7562 7.13872 5.92002 7.33002L8.40002 9.81002Z" fill="black"/>
<path d="M27.6 26.19C27.4087 26.0262 27.1627 25.9406 26.911 25.9503C26.6593 25.9601 26.4206 26.0644 26.2425 26.2425C26.0644 26.4206 25.9601 26.6593 25.9503 26.911C25.9406 27.1627 26.0262 27.4087 26.19 27.6L28.67 30.08C28.8613 30.2439 29.1074 30.3295 29.3591 30.3198C29.6108 30.31 29.8495 30.2057 30.0276 30.0276C30.2057 29.8495 30.31 29.6108 30.3198 29.3591C30.3295 29.1074 30.2439 28.8613 30.08 28.67L27.6 26.19Z" fill="black"/>
<path d="M6.42003 18C6.42003 17.7348 6.31468 17.4804 6.12714 17.2929C5.9396 17.1054 5.68525 17 5.42003 17H1.91003C1.64482 17 1.39046 17.1054 1.20293 17.2929C1.01539 17.4804 0.910034 17.7348 0.910034 18C0.910034 18.2652 1.01539 18.5196 1.20293 18.7071C1.39046 18.8946 1.64482 19 1.91003 19H5.42003C5.68525 19 5.9396 18.8946 6.12714 18.7071C6.31468 18.5196 6.42003 18.2652 6.42003 18Z" fill="black"/>
<path d="M34.09 17H30.58C30.3147 17 30.0604 17.1054 29.8728 17.2929C29.6853 17.4804 29.58 17.7348 29.58 18C29.58 18.2652 29.6853 18.5196 29.8728 18.7071C30.0604 18.8946 30.3147 19 30.58 19H34.09C34.3552 19 34.6095 18.8946 34.7971 18.7071C34.9846 18.5196 35.09 18.2652 35.09 18C35.09 17.7348 34.9846 17.4804 34.7971 17.2929C34.6095 17.1054 34.3552 17 34.09 17Z" fill="black"/>
<path d="M8.40002 26.19L5.92002 28.67C5.7562 28.8613 5.67059 29.1074 5.68031 29.3591C5.69003 29.6108 5.79436 29.8495 5.97246 30.0276C6.15055 30.2057 6.38929 30.31 6.64097 30.3198C6.89265 30.3295 7.13872 30.2439 7.33002 30.08L9.81002 27.6C9.97385 27.4087 10.0595 27.1627 10.0497 26.911C10.04 26.6593 9.93568 26.4206 9.75759 26.2425C9.57949 26.0644 9.34075 25.9601 9.08908 25.9503C8.8374 25.9406 8.59132 26.0262 8.40002 26.19Z" fill="black"/>
<path d="M27.6 9.81002L30.08 7.33002C30.2439 7.13872 30.3295 6.89265 30.3198 6.64097C30.31 6.38929 30.2057 6.15055 30.0276 5.97246C29.8495 5.79436 29.6108 5.69003 29.3591 5.68031C29.1074 5.67059 28.8613 5.7562 28.67 5.92002L26.19 8.40002C26.0262 8.59132 25.9406 8.8374 25.9503 9.08908C25.9601 9.34075 26.0644 9.57949 26.2425 9.75759C26.4206 9.93568 26.6593 10.04 26.911 10.0497C27.1627 10.0595 27.4087 9.97385 27.6 9.81002Z" fill="black"/>
<path d="M18 28C23.5228 28 28 23.5228 28 18C28 12.4772 23.5228 8 18 8C12.4772 8 8 12.4772 8 18C8 23.5228 12.4772 28 18 28Z" fill="black"/>
<rect x="0.5" y="0.5" width="35" height="35" rx="17.5" stroke="black"/>
</svg>
