<svg width="121" height="57" viewBox="0 0 121 57" fill="none" xmlns="http://www.w3.org/2000/svg">
<path d="M33.952 22.62C35.032 22.62 35.932 22.584 36.652 22.512V23.232C35.308 23.544 34.36 24.588 33.808 26.364L27.004 48.18H26.716H26.428L20.164 29.64L14.44 48.18H14.152H13.864L6.232 25.536C5.728 24.048 4.9 23.28 3.748 23.232V22.512C4.732 22.584 6.016 22.62 7.6 22.62C9.328 22.62 10.624 22.584 11.488 22.512V23.232C10.84 23.28 10.384 23.4 10.12 23.592C9.856 23.784 9.724 24.084 9.724 24.492C9.724 24.876 9.856 25.464 10.12 26.256L15.376 42.312L19.768 28.38L18.796 25.536C18.316 24.048 17.608 23.28 16.672 23.232V22.512C17.536 22.584 18.7 22.62 20.164 22.62C22.228 22.62 23.764 22.584 24.772 22.512V23.232C23.86 23.28 23.224 23.388 22.864 23.556C22.504 23.7 22.324 24.024 22.324 24.528C22.324 24.96 22.444 25.536 22.684 26.256L27.868 42.276L32.296 28.344C32.68 27.168 32.872 26.196 32.872 25.428C32.872 24.636 32.632 24.084 32.152 23.772C31.672 23.436 30.892 23.256 29.812 23.232V22.512C31.18 22.584 32.56 22.62 33.952 22.62ZM50.7618 43.68C50.3298 45 49.5138 46.14 48.3138 47.1C47.1378 48.036 45.7098 48.504 44.0298 48.504C42.3258 48.504 40.8498 48.12 39.6018 47.352C38.3538 46.56 37.3938 45.468 36.7218 44.076C36.0738 42.66 35.7498 41.028 35.7498 39.18C35.7498 37.092 36.0858 35.28 36.7578 33.744C37.4298 32.208 38.3778 31.032 39.6018 30.216C40.8258 29.376 42.2538 28.956 43.8858 28.956C46.0458 28.956 47.7018 29.616 48.8538 30.936C50.0298 32.232 50.6178 34.212 50.6178 36.876H39.3498C39.2778 37.548 39.2418 38.316 39.2418 39.18C39.2418 40.764 39.4938 42.144 39.9978 43.32C40.5258 44.496 41.2098 45.408 42.0498 46.056C42.9138 46.68 43.8138 46.992 44.7498 46.992C45.9018 46.992 46.9218 46.716 47.8098 46.164C48.6978 45.612 49.4418 44.688 50.0418 43.392L50.7618 43.68ZM43.7418 29.64C42.6138 29.64 41.6418 30.192 40.8258 31.296C40.0098 32.4 39.5058 34.032 39.3138 36.192H47.1618C47.2098 34.32 46.9338 32.76 46.3338 31.512C45.7578 30.264 44.8938 29.64 43.7418 29.64ZM58.1727 48.252C56.6607 48.252 55.5327 47.88 54.7887 47.136C54.0687 46.368 53.7087 45.312 53.7087 43.968C53.7087 42.888 53.9967 42 54.5727 41.304C55.1727 40.608 55.8687 40.056 56.6607 39.648C57.4767 39.24 58.5447 38.808 59.8647 38.352C61.2087 37.896 62.2047 37.476 62.8527 37.092C63.5007 36.708 63.8247 36.192 63.8247 35.544V33.312C63.8247 31.92 63.5247 30.972 62.9247 30.468C62.3487 29.94 61.5327 29.676 60.4767 29.676C58.7967 29.676 57.6087 30.108 56.9127 30.972C57.3927 31.092 57.7887 31.344 58.1007 31.728C58.4367 32.112 58.6047 32.592 58.6047 33.168C58.6047 33.768 58.4127 34.248 58.0287 34.608C57.6447 34.944 57.1527 35.112 56.5527 35.112C55.8807 35.112 55.3767 34.908 55.0407 34.5C54.7047 34.068 54.5367 33.552 54.5367 32.952C54.5367 32.376 54.6687 31.896 54.9327 31.512C55.2207 31.128 55.6407 30.744 56.1927 30.36C56.7687 29.952 57.5007 29.616 58.3887 29.352C59.2767 29.088 60.2487 28.956 61.3047 28.956C63.1767 28.956 64.5927 29.4 65.5527 30.288C66.1527 30.84 66.5487 31.512 66.7407 32.304C66.9567 33.072 67.0647 34.092 67.0647 35.364V45.372C67.0647 45.972 67.1487 46.404 67.3167 46.668C67.4847 46.932 67.7727 47.064 68.1807 47.064C68.4687 47.064 68.7327 47.004 68.9727 46.884C69.2367 46.74 69.5127 46.548 69.8007 46.308L70.1967 46.92C69.5727 47.4 69.0327 47.748 68.5767 47.964C68.1447 48.156 67.5927 48.252 66.9207 48.252C65.7687 48.252 64.9647 47.964 64.5087 47.388C64.0527 46.812 63.8247 46.032 63.8247 45.048C63.1047 46.248 62.2767 47.088 61.3407 47.568C60.4047 48.024 59.3487 48.252 58.1727 48.252ZM59.7567 46.812C61.3407 46.812 62.6967 45.9 63.8247 44.076V37.02C63.6087 37.356 63.3087 37.632 62.9247 37.848C62.5407 38.064 61.9527 38.352 61.1607 38.712C60.2487 39.096 59.5047 39.468 58.9287 39.828C58.3767 40.164 57.8967 40.632 57.4887 41.232C57.0807 41.832 56.8767 42.6 56.8767 43.536C56.8767 44.616 57.1407 45.432 57.6687 45.984C58.1967 46.536 58.8927 46.812 59.7567 46.812ZM82.4744 28.956C83.4344 28.956 84.2144 29.232 84.8144 29.784C85.4384 30.336 85.7504 31.008 85.7504 31.8C85.7504 32.424 85.5584 32.964 85.1744 33.42C84.8144 33.852 84.3224 34.068 83.6984 34.068C83.1704 34.068 82.7144 33.9 82.3304 33.564C81.9704 33.228 81.7904 32.772 81.7904 32.196C81.7904 31.404 82.1984 30.756 83.0144 30.252C82.8464 30.012 82.5944 29.892 82.2584 29.892C81.3224 29.892 80.4704 30.264 79.7024 31.008C78.9344 31.728 78.3344 32.616 77.9024 33.672C77.4704 34.728 77.2544 35.724 77.2544 36.66V44.292C77.2544 45.396 77.5664 46.164 78.1904 46.596C78.8384 47.028 79.7984 47.244 81.0704 47.244V48L80.2064 47.964C77.7584 47.892 76.1984 47.856 75.5264 47.856C74.9024 47.856 73.4864 47.904 71.2784 48V47.244C72.2864 47.244 72.9944 47.064 73.4024 46.704C73.8104 46.32 74.0144 45.636 74.0144 44.652V33.384C74.0144 32.28 73.8104 31.476 73.4024 30.972C72.9944 30.468 72.2864 30.216 71.2784 30.216V29.46C72.0464 29.532 72.7904 29.568 73.5104 29.568C75.0224 29.568 76.2704 29.4 77.2544 29.064V33.564C77.6864 32.364 78.3704 31.296 79.3064 30.36C80.2664 29.424 81.3224 28.956 82.4744 28.956ZM93.1056 29.496H98.4336V30.216H93.1056V44.148C93.1056 45.228 93.2976 46.008 93.6816 46.488C94.0896 46.968 94.6656 47.208 95.4096 47.208C96.1536 47.208 96.7896 46.908 97.3176 46.308C97.8456 45.708 98.2896 44.724 98.6496 43.356L99.3696 43.536C98.7696 46.848 97.2096 48.504 94.6896 48.504C93.8736 48.504 93.2016 48.408 92.6736 48.216C92.1456 48.024 91.6776 47.724 91.2696 47.316C90.7416 46.788 90.3696 46.14 90.1536 45.372C89.9616 44.604 89.8656 43.572 89.8656 42.276V30.216H86.4096V29.496H89.8656V23.988C91.2096 23.94 92.2896 23.772 93.1056 23.484V29.496ZM105.688 33.276C106.288 31.764 107.116 30.672 108.172 30C109.252 29.304 110.464 28.956 111.808 28.956C113.488 28.956 114.76 29.412 115.624 30.324C116.08 30.804 116.404 31.404 116.596 32.124C116.788 32.844 116.884 33.816 116.884 35.04V44.652C116.884 45.636 117.088 46.32 117.496 46.704C117.904 47.064 118.612 47.244 119.62 47.244V48C117.412 47.904 115.972 47.856 115.3 47.856C114.628 47.856 113.284 47.904 111.268 48V47.244C112.156 47.244 112.768 47.064 113.104 46.704C113.464 46.32 113.644 45.636 113.644 44.652V34.248C113.644 32.904 113.452 31.884 113.068 31.188C112.684 30.468 111.904 30.108 110.728 30.108C109.744 30.108 108.868 30.384 108.1 30.936C107.356 31.488 106.768 32.268 106.336 33.276C105.904 34.26 105.688 35.376 105.688 36.624V44.652C105.688 45.636 105.856 46.32 106.192 46.704C106.552 47.064 107.176 47.244 108.064 47.244V48C106.048 47.904 104.704 47.856 104.032 47.856C103.36 47.856 101.92 47.904 99.7122 48V47.244C100.72 47.244 101.428 47.064 101.836 46.704C102.244 46.32 102.448 45.636 102.448 44.652V24.132C102.448 23.028 102.244 22.224 101.836 21.72C101.428 21.216 100.72 20.964 99.7122 20.964V20.208C100.48 20.28 101.224 20.316 101.944 20.316C103.456 20.316 104.704 20.148 105.688 19.812V33.276Z" fill="black"/>
<path d="M2.43381 28.903C-2.41945 19.8644 1.72008 15.2578 1.98537 13.4326C2.25066 11.6074 8.52527 7.20292 7.0757 9.94517C5.62613 12.6874 8.19738 16.3245 8.19738 16.3245C8.19738 16.3245 11.1298 19.5952 10.0155 14.9482C8.90126 10.3011 18.2573 1.59854 19.8021 0.406836C21.347 -0.784873 24.9132 1.29701 22.3577 0.851409C19.8021 0.405807 18.3636 5.24616 18.2811 7.16123C18.1986 9.07631 20.0418 13.8109 20.7582 10.708C21.4745 7.60514 24.7558 7.13356 24.7558 7.13356C24.7558 7.13356 21.2279 13.8058 25.5189 14.9736C29.8099 16.1414 28.9223 23.5568 28.9223 23.5568C28.4342 23.8783 27.493 24.0359 26.2844 24.0833C21.315 24.2787 11.8218 22.6107 10.6778 22.8103L6.43527 28.8859L2.43381 28.903Z" fill="#231F20"/>
</svg>
